<svg xmlns="http://www.w3.org/2000/svg" viewBox="0 0 323.4 571"><title>Asset 1</title><g id="Layer_2" data-name="Layer 2"><g id="jar"><path id="jar-glass" d="M167.4,571c-66,0-112-22-132-42s-29-66-29-66-10-296-5-314,21-17,12-27-6-18-6-18l147-34L316,104s3,8-6,18,7,9,12,27-5,314-5,314-9,46-29,66-66,42-132,42" style="fill:#e5e5e5"/><path id="glass-shadow" d="M8.23,453.83S16.9,480.5,29.9,495.5s31,22,31,22-25-23-15-32,30-32,114-32,122,34,122,34,12,11-7,26c0,0,29-8,38-48,0,0,3,102-152,102S8.23,453.83,8.23,453.83Z" style="fill:#ccc"/></g><g id="lid"><path d="M173.4,125c127,0,144-25,144-25s7-8,3-15c-6.89-12.06-7-12-7-12s6-11,6-18V48l-2-24s-13-24-149-24h-13C19.4,0,6.4,24,6.4,24l-2,24v7c0,7,6,18,6,18s-.11-.06-7,12c-4,7,3,15,3,15s17,25,144,25Z" style="fill:#c1c1c1"/><path d="M11.34,73S-13.27,96,168.81,96C328.9,96,313.9,73.5,313.9,73.5s45,36.5-146.07,36.5C-32,110,11.34,73,11.34,73Z" style="fill:#7f7f7f"/><path d="M5.9,23.5S6.9,48,168.81,48C315.9,48,317.9,24.5,317.9,24.5S336.9,56,167.83,56C-12.1,56,5.9,23.5,5.9,23.5Z" style="fill:#7f7f7f"/><path d="M12.88,22.5s.95,17,154.77,17c139.74,0,141.64-16.27,141.64-16.27S327.34,45,166.72,45C-4.23,45,12.88,22.5,12.88,22.5Z" style="fill:#fff"/></g><g id="contents"><path id="mixture" d="M290.9,215.5H34.9V492.7h0c0,.17,0,.34,0,.51,0,19.49,57.31,47.29,128,47.29s128-27.8,128-47.29c0-.17,0-.34,0-.51h0Z" style="fill:#a44"/><g id="seeds"><ellipse cx="86.86" cy="295.81" rx="7.56" ry="4.35" style="fill:#fff"/><ellipse cx="87.6" cy="296.24" rx="6.81" ry="3.92" style="fill:#5b3d3d"/><ellipse cx="117.1" cy="283.71" rx="7.56" ry="4.35" style="fill:#fff"/><ellipse cx="117.85" cy="284.14" rx="6.81" ry="3.92" style="fill:#5b3d3d"/><ellipse cx="125.42" cy="325.3" rx="7.56" ry="4.35" style="fill:#fff"/><ellipse cx="126.17" cy="325.73" rx="6.81" ry="3.92" style="fill:#5b3d3d"/><ellipse cx="72.49" cy="338.91" rx="7.56" ry="4.35" style="fill:#fff"/><ellipse cx="73.23" cy="339.34" rx="6.81" ry="3.92" style="fill:#5b3d3d"/><ellipse cx="167.77" cy="357.82" rx="7.56" ry="4.35" style="fill:#fff"/><ellipse cx="168.52" cy="358.25" rx="6.81" ry="3.92" style="fill:#5b3d3d"/><ellipse cx="198.02" cy="345.72" rx="7.56" ry="4.35" style="fill:#fff"/><ellipse cx="198.77" cy="346.15" rx="6.81" ry="3.92" style="fill:#5b3d3d"/><ellipse cx="206.34" cy="387.31" rx="7.56" ry="4.35" style="fill:#fff"/><ellipse cx="207.09" cy="387.74" rx="6.81" ry="3.92" style="fill:#5b3d3d"/><ellipse cx="170.8" cy="403.95" rx="7.56" ry="4.35" style="fill:#fff"/><ellipse cx="171.54" cy="404.38" rx="6.81" ry="3.92" style="fill:#5b3d3d"/><ellipse cx="158.7" cy="282.95" rx="7.56" ry="4.35" style="fill:#fff"/><ellipse cx="159.44" cy="283.38" rx="6.81" ry="3.92" style="fill:#5b3d3d"/><ellipse cx="188.94" cy="270.85" rx="7.56" ry="4.35" style="fill:#fff"/><ellipse cx="189.69" cy="271.28" rx="6.81" ry="3.92" style="fill:#5b3d3d"/><ellipse cx="197.26" cy="312.45" rx="7.56" ry="4.35" style="fill:#fff"/><ellipse cx="198.01" cy="312.88" rx="6.81" ry="3.92" style="fill:#5b3d3d"/><ellipse cx="161.72" cy="329.08" rx="7.56" ry="4.35" style="fill:#fff"/><ellipse cx="162.47" cy="329.51" rx="6.81" ry="3.92" style="fill:#5b3d3d"/><ellipse cx="117.1" cy="358.58" rx="7.56" ry="4.35" style="fill:#fff"/><ellipse cx="117.85" cy="359.01" rx="6.81" ry="3.92" style="fill:#5b3d3d"/><ellipse cx="76.35" cy="496.63" rx="7.56" ry="4.35" style="fill:#fff"/><ellipse cx="77.1" cy="497.06" rx="6.81" ry="3.92" style="fill:#5b3d3d"/><ellipse cx="130.67" cy="511.07" rx="7.56" ry="4.35" style="fill:#fff"/><ellipse cx="131.42" cy="511.5" rx="6.81" ry="3.92" style="fill:#5b3d3d"/><ellipse cx="120.13" cy="404.7" rx="7.56" ry="4.35" style="fill:#fff"/><ellipse cx="120.88" cy="405.14" rx="6.81" ry="3.92" style="fill:#5b3d3d"/><ellipse cx="69.46" cy="392.61" rx="7.56" ry="4.35" style="fill:#fff"/><ellipse cx="70.21" cy="393.04" rx="6.81" ry="3.92" style="fill:#5b3d3d"/><ellipse cx="101.22" cy="384.29" rx="7.56" ry="4.35" style="fill:#fff"/><ellipse cx="101.97" cy="384.72" rx="6.81" ry="3.92" style="fill:#5b3d3d"/><ellipse cx="139.25" cy="439.83" rx="7.56" ry="4.35" style="fill:#fff"/><ellipse cx="140" cy="440.26" rx="6.81" ry="3.92" style="fill:#5b3d3d"/><ellipse cx="99.71" cy="436.47" rx="7.56" ry="4.35" style="fill:#fff"/><ellipse cx="100.46" cy="436.9" rx="6.81" ry="3.92" style="fill:#5b3d3d"/><ellipse cx="61.86" cy="261.81" rx="7.56" ry="4.35" style="fill:#fff"/><ellipse cx="62.6" cy="262.24" rx="6.81" ry="3.92" style="fill:#5b3d3d"/><ellipse cx="243.1" cy="279.71" rx="7.56" ry="4.35" style="fill:#fff"/><ellipse cx="243.85" cy="280.14" rx="6.81" ry="3.92" style="fill:#5b3d3d"/><ellipse cx="194.42" cy="373.3" rx="7.56" ry="4.35" style="fill:#fff"/><ellipse cx="195.17" cy="373.73" rx="6.81" ry="3.92" style="fill:#5b3d3d"/><ellipse cx="141.49" cy="386.91" rx="7.56" ry="4.35" style="fill:#fff"/><ellipse cx="142.23" cy="387.34" rx="6.81" ry="3.92" style="fill:#5b3d3d"/><ellipse cx="236.77" cy="405.82" rx="7.56" ry="4.35" style="fill:#fff"/><ellipse cx="237.52" cy="406.25" rx="6.81" ry="3.92" style="fill:#5b3d3d"/><ellipse cx="259.02" cy="393.72" rx="7.56" ry="4.35" style="fill:#fff"/><ellipse cx="259.77" cy="394.15" rx="6.81" ry="3.92" style="fill:#5b3d3d"/><ellipse cx="275.34" cy="435.31" rx="7.56" ry="4.35" style="fill:#fff"/><ellipse cx="276.09" cy="435.74" rx="6.81" ry="3.92" style="fill:#5b3d3d"/><ellipse cx="239.8" cy="451.95" rx="7.56" ry="4.35" style="fill:#fff"/><ellipse cx="240.54" cy="452.38" rx="6.81" ry="3.92" style="fill:#5b3d3d"/><ellipse cx="227.7" cy="330.95" rx="7.56" ry="4.35" style="fill:#fff"/><ellipse cx="228.44" cy="331.38" rx="6.81" ry="3.92" style="fill:#5b3d3d"/><ellipse cx="257.94" cy="318.85" rx="7.56" ry="4.35" style="fill:#fff"/><ellipse cx="258.69" cy="319.28" rx="6.81" ry="3.92" style="fill:#5b3d3d"/><ellipse cx="243.26" cy="353.45" rx="7.56" ry="4.35" style="fill:#fff"/><ellipse cx="244.01" cy="353.88" rx="6.81" ry="3.92" style="fill:#5b3d3d"/><ellipse cx="230.72" cy="377.08" rx="7.56" ry="4.35" style="fill:#fff"/><ellipse cx="231.47" cy="377.51" rx="6.81" ry="3.92" style="fill:#5b3d3d"/><ellipse cx="251.1" cy="500.58" rx="7.56" ry="4.35" style="fill:#fff"/><ellipse cx="251.85" cy="501.01" rx="6.81" ry="3.92" style="fill:#5b3d3d"/><ellipse cx="216.35" cy="412.63" rx="7.56" ry="4.35" style="fill:#fff"/><ellipse cx="217.1" cy="413.06" rx="6.81" ry="3.92" style="fill:#5b3d3d"/><ellipse cx="224.67" cy="436.07" rx="7.56" ry="4.35" style="fill:#fff"/><ellipse cx="225.42" cy="436.5" rx="6.81" ry="3.92" style="fill:#5b3d3d"/><ellipse cx="189.13" cy="452.7" rx="7.56" ry="4.35" style="fill:#fff"/><ellipse cx="189.88" cy="453.14" rx="6.81" ry="3.92" style="fill:#5b3d3d"/><ellipse cx="132.46" cy="475.61" rx="7.56" ry="4.35" style="fill:#fff"/><ellipse cx="133.21" cy="476.04" rx="6.81" ry="3.92" style="fill:#5b3d3d"/><ellipse cx="170.22" cy="432.29" rx="7.56" ry="4.35" style="fill:#fff"/><ellipse cx="170.97" cy="432.72" rx="6.81" ry="3.92" style="fill:#5b3d3d"/><ellipse cx="204.25" cy="467.83" rx="7.56" ry="4.35" style="fill:#fff"/><ellipse cx="205" cy="468.26" rx="6.81" ry="3.92" style="fill:#5b3d3d"/><ellipse cx="168.71" cy="484.47" rx="7.56" ry="4.35" style="fill:#fff"/><ellipse cx="169.46" cy="484.9" rx="6.81" ry="3.92" style="fill:#5b3d3d"/></g><ellipse id="mixture-top" cx="162.9" cy="215" rx="128" ry="39.5" style="fill:#db7d7d"/></g><g id="modeling"><path id="glass-shadow-top" d="M26.9,134.5c-10,2,10,26,10,26-12,1-22,20-22,20s-15-8-14-20,12-17,13-23a41.5,41.5,0,0,0,0-12Zm246,8c-4,6-125,16-125,16,15,4,93-3,93-3s43-9,57-3,19,29,19,29c7-12,5-26,2-36s-12-18-12-18c6-3,7-16,7-16-4,7-7,9-27,16s-65,13-65,13A333.65,333.65,0,0,1,272.9,142.5Z" style="fill:#ccc"/><path id="sheen" d="M235.9,164.5s34.26,2.49,37,19.89V481.53s-9.59,42.27-24.67,51c0,0,11-28.59,11-47.24V186.88S257.83,176.93,235.9,164.5Z" style="fill:#fff"/></g></g></svg>