<svg xmlns="http://www.w3.org/2000/svg" viewBox="0 0 323.4 568"><title>Asset 2</title><g id="Layer_2" data-name="Layer 2"><g id="jar"><path id="jar-glass" d="M167.4,568c-66,0-112-22-132-42s-29-66-29-66-10-296-5-314,21-17,12-27-6-18-6-18l147-34L316,101s3,8-6,18,7,9,12,27-5,314-5,314-9,46-29,66-66,42-132,42" style="fill:#e5e5e5"/><path id="glass-shadow" d="M8.23,446.83S16.9,473.5,29.9,488.5s31,22,31,22-25-23-15-32,30-32,114-32,122,34,122,34,12,11-7,26c0,0,29-8,38-48,0,0,3,102-152,102S8.23,446.83,8.23,446.83Z" style="fill:#ccc"/></g><g id="lid"><path d="M173.4,125c127,0,144-25,144-25s7-8,3-15c-6.89-12.06-7-12-7-12s6-11,6-18V48l-2-24s-13-24-149-24h-13C19.4,0,6.4,24,6.4,24l-2,24v7c0,7,6,18,6,18s-.11-.06-7,12c-4,7,3,15,3,15s17,25,144,25Z" style="fill:#c1c1c1"/><path d="M11.34,73S-13.27,96,168.81,96C328.9,96,313.9,73.5,313.9,73.5s45,36.5-146.07,36.5C-32,110,11.34,73,11.34,73Z" style="fill:#7f7f7f"/><path d="M6.4,24s1,24.5,162.91,24.5c147.09,0,147.59-24,147.59-24s20.5,32-148.57,32C-11.6,56.5,6.4,24,6.4,24Z" style="fill:#7f7f7f"/><path d="M12.88,22.5s.95,17,154.77,17c139.74,0,141.64-16.27,141.64-16.27S327.34,45,166.72,45C-4.23,45,12.88,22.5,12.88,22.5Z" style="fill:#fff"/></g><g id="contents"><path id="mixture" d="M290.9,212.5H34.9V489.7h0c0,.17,0,.34,0,.51,0,19.49,57.31,47.29,128,47.29s128-27.8,128-47.29c0-.17,0-.34,0-.51h0Z" style="fill:#a44"/><g id="seeds"><ellipse cx="86.86" cy="292.81" rx="7.56" ry="4.35" style="fill:#fff"/><ellipse cx="87.6" cy="293.24" rx="6.81" ry="3.92" style="fill:#5b3d3d"/><ellipse cx="117.1" cy="280.71" rx="7.56" ry="4.35" style="fill:#fff"/><ellipse cx="117.85" cy="281.14" rx="6.81" ry="3.92" style="fill:#5b3d3d"/><ellipse cx="125.42" cy="322.3" rx="7.56" ry="4.35" style="fill:#fff"/><ellipse cx="126.17" cy="322.73" rx="6.81" ry="3.92" style="fill:#5b3d3d"/><ellipse cx="72.49" cy="335.91" rx="7.56" ry="4.35" style="fill:#fff"/><ellipse cx="73.23" cy="336.34" rx="6.81" ry="3.92" style="fill:#5b3d3d"/><ellipse cx="167.77" cy="354.82" rx="7.56" ry="4.35" style="fill:#fff"/><ellipse cx="168.52" cy="355.25" rx="6.81" ry="3.92" style="fill:#5b3d3d"/><ellipse cx="198.02" cy="342.72" rx="7.56" ry="4.35" style="fill:#fff"/><ellipse cx="198.77" cy="343.15" rx="6.81" ry="3.92" style="fill:#5b3d3d"/><ellipse cx="206.34" cy="384.31" rx="7.56" ry="4.35" style="fill:#fff"/><ellipse cx="207.09" cy="384.74" rx="6.81" ry="3.92" style="fill:#5b3d3d"/><ellipse cx="170.8" cy="400.95" rx="7.56" ry="4.35" style="fill:#fff"/><ellipse cx="171.54" cy="401.38" rx="6.81" ry="3.92" style="fill:#5b3d3d"/><ellipse cx="158.7" cy="279.95" rx="7.56" ry="4.35" style="fill:#fff"/><ellipse cx="159.44" cy="280.38" rx="6.81" ry="3.92" style="fill:#5b3d3d"/><ellipse cx="188.94" cy="267.85" rx="7.56" ry="4.35" style="fill:#fff"/><ellipse cx="189.69" cy="268.28" rx="6.81" ry="3.92" style="fill:#5b3d3d"/><ellipse cx="197.26" cy="309.45" rx="7.56" ry="4.35" style="fill:#fff"/><ellipse cx="198.01" cy="309.88" rx="6.81" ry="3.92" style="fill:#5b3d3d"/><ellipse cx="161.72" cy="326.08" rx="7.56" ry="4.35" style="fill:#fff"/><ellipse cx="162.47" cy="326.51" rx="6.81" ry="3.92" style="fill:#5b3d3d"/><ellipse cx="117.1" cy="355.58" rx="7.56" ry="4.35" style="fill:#fff"/><ellipse cx="117.85" cy="356.01" rx="6.81" ry="3.92" style="fill:#5b3d3d"/><ellipse cx="76.35" cy="493.63" rx="7.56" ry="4.35" style="fill:#fff"/><ellipse cx="77.1" cy="494.06" rx="6.81" ry="3.92" style="fill:#5b3d3d"/><ellipse cx="130.67" cy="508.07" rx="7.56" ry="4.35" style="fill:#fff"/><ellipse cx="131.42" cy="508.5" rx="6.81" ry="3.92" style="fill:#5b3d3d"/><ellipse cx="120.13" cy="401.7" rx="7.56" ry="4.35" style="fill:#fff"/><ellipse cx="120.88" cy="402.14" rx="6.81" ry="3.92" style="fill:#5b3d3d"/><ellipse cx="69.46" cy="389.61" rx="7.56" ry="4.35" style="fill:#fff"/><ellipse cx="70.21" cy="390.04" rx="6.81" ry="3.92" style="fill:#5b3d3d"/><ellipse cx="101.22" cy="381.29" rx="7.56" ry="4.35" style="fill:#fff"/><ellipse cx="101.97" cy="381.72" rx="6.81" ry="3.92" style="fill:#5b3d3d"/><ellipse cx="139.25" cy="436.83" rx="7.56" ry="4.35" style="fill:#fff"/><ellipse cx="140" cy="437.26" rx="6.81" ry="3.92" style="fill:#5b3d3d"/><ellipse cx="99.71" cy="433.47" rx="7.56" ry="4.35" style="fill:#fff"/><ellipse cx="100.46" cy="433.9" rx="6.81" ry="3.92" style="fill:#5b3d3d"/><ellipse cx="61.86" cy="258.81" rx="7.56" ry="4.35" style="fill:#fff"/><ellipse cx="62.6" cy="259.24" rx="6.81" ry="3.92" style="fill:#5b3d3d"/><ellipse cx="243.1" cy="276.71" rx="7.56" ry="4.35" style="fill:#fff"/><ellipse cx="243.85" cy="277.14" rx="6.81" ry="3.92" style="fill:#5b3d3d"/><ellipse cx="194.42" cy="370.3" rx="7.56" ry="4.35" style="fill:#fff"/><ellipse cx="195.17" cy="370.73" rx="6.81" ry="3.92" style="fill:#5b3d3d"/><ellipse cx="141.49" cy="383.91" rx="7.56" ry="4.35" style="fill:#fff"/><ellipse cx="142.23" cy="384.34" rx="6.81" ry="3.92" style="fill:#5b3d3d"/><ellipse cx="236.77" cy="402.82" rx="7.56" ry="4.35" style="fill:#fff"/><ellipse cx="237.52" cy="403.25" rx="6.81" ry="3.92" style="fill:#5b3d3d"/><ellipse cx="259.02" cy="390.72" rx="7.56" ry="4.35" style="fill:#fff"/><ellipse cx="259.77" cy="391.15" rx="6.81" ry="3.92" style="fill:#5b3d3d"/><ellipse cx="275.34" cy="432.31" rx="7.56" ry="4.35" style="fill:#fff"/><ellipse cx="276.09" cy="432.74" rx="6.81" ry="3.92" style="fill:#5b3d3d"/><ellipse cx="239.8" cy="448.95" rx="7.56" ry="4.35" style="fill:#fff"/><ellipse cx="240.54" cy="449.38" rx="6.81" ry="3.92" style="fill:#5b3d3d"/><ellipse cx="227.7" cy="327.95" rx="7.56" ry="4.35" style="fill:#fff"/><ellipse cx="228.44" cy="328.38" rx="6.81" ry="3.92" style="fill:#5b3d3d"/><ellipse cx="257.94" cy="315.85" rx="7.56" ry="4.35" style="fill:#fff"/><ellipse cx="258.69" cy="316.28" rx="6.81" ry="3.92" style="fill:#5b3d3d"/><ellipse cx="243.26" cy="350.45" rx="7.56" ry="4.35" style="fill:#fff"/><ellipse cx="244.01" cy="350.88" rx="6.81" ry="3.92" style="fill:#5b3d3d"/><ellipse cx="230.72" cy="374.08" rx="7.56" ry="4.35" style="fill:#fff"/><ellipse cx="231.47" cy="374.51" rx="6.81" ry="3.92" style="fill:#5b3d3d"/><ellipse cx="251.1" cy="497.58" rx="7.56" ry="4.35" style="fill:#fff"/><ellipse cx="251.85" cy="498.01" rx="6.81" ry="3.92" style="fill:#5b3d3d"/><ellipse cx="216.35" cy="409.63" rx="7.56" ry="4.35" style="fill:#fff"/><ellipse cx="217.1" cy="410.06" rx="6.81" ry="3.92" style="fill:#5b3d3d"/><ellipse cx="224.67" cy="433.07" rx="7.56" ry="4.35" style="fill:#fff"/><ellipse cx="225.42" cy="433.5" rx="6.81" ry="3.92" style="fill:#5b3d3d"/><ellipse cx="189.13" cy="449.7" rx="7.56" ry="4.35" style="fill:#fff"/><ellipse cx="189.88" cy="450.14" rx="6.81" ry="3.92" style="fill:#5b3d3d"/><ellipse cx="132.46" cy="472.61" rx="7.56" ry="4.35" style="fill:#fff"/><ellipse cx="133.21" cy="473.04" rx="6.81" ry="3.92" style="fill:#5b3d3d"/><ellipse cx="170.22" cy="429.29" rx="7.56" ry="4.35" style="fill:#fff"/><ellipse cx="170.97" cy="429.72" rx="6.81" ry="3.92" style="fill:#5b3d3d"/><ellipse cx="204.25" cy="464.83" rx="7.56" ry="4.35" style="fill:#fff"/><ellipse cx="205" cy="465.26" rx="6.81" ry="3.92" style="fill:#5b3d3d"/><ellipse cx="168.71" cy="481.47" rx="7.56" ry="4.35" style="fill:#fff"/><ellipse cx="169.46" cy="481.9" rx="6.81" ry="3.92" style="fill:#5b3d3d"/></g><ellipse id="mixture-top" cx="162.9" cy="212" rx="128" ry="39.5" style="fill:#db7d7d"/></g><g id="modeling"><path d="M29.9,125.5c-10,2,10,26,10,26-12,1-22,20-22,20s-15-8-14-20,12-17,13-23a41.5,41.5,0,0,0,0-12Z" style="fill:#ccc"/><path d="M272.9,139.5c-4,6-125,16-125,16,15,4,93-3,93-3s43-9,57-3,19,29,19,29c7-12,5-26,2-36s-12-18-12-18c6-3,7-16,7-16-4,7-7,9-27,16s-65,13-65,13A333.65,333.65,0,0,1,272.9,139.5Z" style="fill:#ccc"/><path id="sheen" d="M235.9,161.5s34.26,2.49,37,19.89V478.53s-9.59,42.27-24.67,51c0,0,11-28.59,11-47.24V183.88S257.83,173.93,235.9,161.5Z" style="fill:#fff"/></g></g></svg>